<?xml version="1.0" encoding="utf-8"?>
<!-- Generator: Adobe Illustrator 25.4.1, SVG Export Plug-In . SVG Version: 6.00 Build 0)  -->
<svg version="1.1" id="Layer_1" xmlns="http://www.w3.org/2000/svg" xmlns:xlink="http://www.w3.org/1999/xlink" x="0px" y="0px"
	 viewBox="0 0 448.43 167.49" style="enable-background:new 0 0 448.43 167.49;" xml:space="preserve">
<style type="text/css">
	.st0{fill:#368A89;}
	.st1{fill:#4BBCC3;}
	.st2{fill:#44AAA5;}
	.st3{fill:#F05554;}
	.st4{fill:#F4F2DC;}
	.st5{fill:#FFFFFF;}
	.st6{opacity:0.55;fill:#FFFFFF;}
</style>
<g>
	
		<ellipse transform="matrix(0.7071 -0.7071 0.7071 0.7071 13.9484 303.799)" class="st0" cx="373.69" cy="135.06" rx="6.74" ry="6.74"/>
	<path class="st0" d="M373.69,135.06c0.49-1.46,0-18.15,0-18.15h-4.8l1.91,18.15H373.69z"/>
	<path class="st0" d="M108.31,112.8c-1.45,3.43,0.16,7.39,3.59,8.84c3.43,1.45,7.39-0.16,8.84-3.59c1.45-3.43-0.16-7.39-3.59-8.84
		C113.71,107.77,109.76,109.37,108.31,112.8z"/>
	<path class="st0" d="M114.52,115.43c1.02-1.16,7.06-16.72,7.06-16.72l-4.42-1.87l-5.31,17.46L114.52,115.43z"/>
	<g>
		<path class="st0" d="M36.65,55.27c-0.01-0.01-0.02-0.02-0.03-0.02C36.63,55.25,36.64,55.26,36.65,55.27z"/>
	</g>
	<path class="st1" d="M433.33,81.88c0.35-10.07-16.23-43.75-69.25-52.65c-53.02-8.9-248.43,18.91-248.43,18.91s-3-12.55-10.38-24.47
		c-9.64-15.57-33-15.57-33-15.57s8.88,86.65,18.91,89.73c10.84,3.33,137.48,26.1,216.91,25.95
		C385.61,123.64,432.22,114.14,433.33,81.88z"/>
	<path class="st2" d="M87.28,10.68c3.14,25.3,9.77,71.01,17.01,73.23c10.84,3.33,137.48,26.1,216.91,25.95
		c51.7-0.09,89.65-4.35,109.52-16.74c-10.87,23.28-54.98,30.54-122.63,30.66c-79.43,0.14-206.06-22.63-216.91-25.95
		C81.15,94.74,72.27,8.09,72.27,8.09S79.32,8.09,87.28,10.68z"/>
	<path class="st3" d="M398.95,115.02c-6.05-2.76-9.26-4.4-15.03-9.32c-13.73-11.7-16.78-28.65-16.78-28.65s25.21,9.64,40.42,12.98
		c8.38,1.84,17.55,1.65,24.09,1.11C427.49,102.25,416.28,109.92,398.95,115.02z"/>
	<path class="st0" d="M349.57,27.8c5.53,0.28,10.4,0.74,14.43,1.42c35.7,5.99,54.88,23.22,63.49,36.91
		c-12.53,0.23-50.31-0.05-63.05-0.16c-3-0.03-5.77-1.6-7.34-4.16c-3.2-5.21-5.86-12.7-6.68-19.7
		C349.91,37.7,349.67,32.26,349.57,27.8z"/>
	<path class="st4" d="M353.1,28.02c0.13,3.66,0.36,7.61,0.76,10.96c0.82,7,3.49,14.49,6.68,19.7c1.57,2.56,4.34,4.13,7.34,4.16
		c11.21,0.09,41.82,0.33,57.54,0.22c0.75,1.04,1.44,2.06,2.08,3.07c-12.53,0.23-50.31-0.05-63.05-0.16c-3-0.03-5.77-1.6-7.34-4.16
		c-3.2-5.21-5.86-12.7-6.68-19.7c-0.52-4.41-0.75-9.85-0.86-14.31C350.78,27.87,351.95,27.94,353.1,28.02z"/>
	<path class="st5" d="M94.98,39.05c2.43,0.55,8.9,5.28,7.23,9.45c-1.67,4.17-48.31,8.24-51.19,6.27c-4.7-3.21,0.02-9.89,9.76-13.23
		C70.63,38.17,83.85,36.55,94.98,39.05z"/>
	<path class="st4" d="M60.82,41.56c0.07-0.02,0.13-0.04,0.2-0.07c-5.07,3.42-6.77,7.7-3.28,10.08c2.25,1.54,31.4-0.63,44.7-3.64
		c-0.04,0.19-0.1,0.39-0.18,0.58c-1.67,4.17-48.31,8.24-51.19,6.27C46.36,51.57,51.09,44.89,60.82,41.56z"/>
	<g>
		<path class="st5" d="M375.01,87.81l-3.45-9.1l0,0c7.91,2.9,24.7,8.85,35.98,11.33l-8.16,4.26l-2.93-7.21l-9.95,4.43l-3.07-8.61
			L375.01,87.81z"/>
		<path class="st5" d="M430.81,91.21L430.81,91.21c-0.57,0.04-6.85,7.35-6.85,7.35l-3.71-7.08l-7.42,6.15l-5.28-7.6
			C415.58,91.8,424.33,91.7,430.81,91.21z"/>
	</g>
	<g>
		<path class="st5" d="M383.92,105.7c-2.92-2.49-5.36-5.22-7.39-7.97h6.97l1.14,8.58C384.4,106.11,384.16,105.91,383.92,105.7z"/>
		<path class="st5" d="M370.8,87.95c-0.13-0.29,5.6,2.27,5.72,2.09c0.12-0.19,0,7.69,0,7.69C374.05,94.37,372.19,90.99,370.8,87.95
			L370.8,87.95z"/>
		<path class="st5" d="M392.81,104.54l-1.02,6.9l8.97-3.48l-1.81,7.06c-5.79-2.65-8.98-4.26-14.31-8.71L392.81,104.54z"/>
	</g>
	<g>
		<g>
			
				<ellipse transform="matrix(0.9726 -0.2324 0.2324 0.9726 -2.6611 76.2769)" class="st4" cx="322.45" cy="49.43" rx="11.49" ry="11.49"/>
			
				<ellipse transform="matrix(0.9728 -0.2317 0.2317 0.9728 -2.6781 76.0701)" class="st0" cx="322.45" cy="49.43" rx="8.78" ry="8.78"/>
		</g>
		<path class="st6" d="M328.6,51.79c-0.47,1.12-1.57,2.23-2.74,1.89c-0.87-0.25-1.34-1.2-1.49-2.09c-0.15-0.89-0.09-1.82-0.37-2.68
			c-0.79-2.39-6.08-5.81-1.75-6.33C327.1,42,330.51,47.25,328.6,51.79z"/>
	</g>
	<g>
		<g>
			
				<ellipse transform="matrix(0.0397 -0.9992 0.9992 0.0397 226.8732 339.0416)" class="st4" cx="289.82" cy="51.49" rx="11.49" ry="11.49"/>
			<path class="st0" d="M281.04,51.49c0,4.85,3.93,8.78,8.78,8.78c4.85,0,8.78-3.93,8.78-8.78c0-4.85-3.93-8.78-8.78-8.78
				C284.97,42.71,281.04,46.64,281.04,51.49z"/>
		</g>
		<path class="st6" d="M295.97,53.84c-0.47,1.12-1.57,2.23-2.74,1.89c-0.87-0.25-1.34-1.2-1.49-2.09c-0.15-0.89-0.09-1.82-0.37-2.68
			c-0.79-2.39-6.08-5.81-1.75-6.33C294.47,44.06,297.88,49.3,295.97,53.84z"/>
	</g>
	<g>
		<g>
			
				<ellipse transform="matrix(0.7071 -0.7071 0.7071 0.7071 37.4363 197.8687)" class="st4" cx="257.57" cy="53.74" rx="11.49" ry="11.49"/>
			
				<ellipse transform="matrix(0.7071 -0.7071 0.7071 0.7071 37.4363 197.8687)" class="st0" cx="257.57" cy="53.74" rx="8.78" ry="8.78"/>
		</g>
		<path class="st6" d="M263.71,56.1c-0.47,1.12-1.57,2.23-2.74,1.89c-0.87-0.25-1.34-1.2-1.49-2.09c-0.15-0.89-0.09-1.82-0.37-2.68
			c-0.79-2.39-6.08-5.81-1.75-6.33C262.22,46.31,265.62,51.56,263.71,56.1z"/>
	</g>
	<g>
		<g>
			<path class="st4" d="M213.07,55.8c0,6.35,5.15,11.49,11.49,11.49c6.35,0,11.49-5.15,11.49-11.49c0-6.35-5.15-11.49-11.49-11.49
				C218.22,44.3,213.07,49.45,213.07,55.8z"/>
			
				<ellipse transform="matrix(0.9737 -0.2278 0.2278 0.9737 -6.8067 52.6234)" class="st0" cx="224.57" cy="55.8" rx="8.78" ry="8.78"/>
		</g>
		<path class="st6" d="M230.71,58.15c-0.47,1.12-1.57,2.23-2.74,1.89c-0.87-0.25-1.34-1.2-1.49-2.09c-0.15-0.89-0.09-1.82-0.37-2.68
			c-0.79-2.39-6.08-5.81-1.75-6.33C229.22,48.37,232.62,53.61,230.71,58.15z"/>
	</g>
	<g>
		<g>
			
				<ellipse transform="matrix(0.9535 -0.3014 0.3014 0.9535 -8.6507 60.3626)" class="st4" cx="191.3" cy="58.22" rx="11.49" ry="11.49"/>
			
				<ellipse transform="matrix(0.9621 -0.2726 0.2726 0.9621 -8.625 54.3589)" class="st0" cx="191.3" cy="58.22" rx="8.78" ry="8.78"/>
		</g>
		<path class="st6" d="M197.44,60.57c-0.47,1.12-1.57,2.23-2.74,1.89c-0.87-0.25-1.34-1.2-1.49-2.09c-0.15-0.89-0.09-1.82-0.37-2.68
			c-0.79-2.39-6.08-5.81-1.75-6.33C195.95,50.78,199.35,56.03,197.44,60.57z"/>
	</g>
	<path class="st6" d="M400.3,46.3c0.83,0.96,1.58,2.11,1.26,3.21c-0.44,1.49-2.73,2.17-4.66,1.92c-3.29-0.42-5.73-2.65-8.16-4.52
		c-3.99-3.07-8.72-5.53-13.84-7.17c-2.84-0.91-5.83-1.6-8.33-3.02c-1.17-0.67-2.3-1.76-1.86-2.82c0.52-1.26,2.7-1.32,4.36-1.1
		c6.38,0.88,11.69,3.09,17.54,5.17C392.11,39.95,396.81,42.24,400.3,46.3z"/>
	<path class="st1" d="M214.15,132.1c2.04-2.32,5.05-3.89,8.14-5.15c11.1-4.53,23.75-5.66,36.09-5.52
		c5.06,0.06,10.11,0.31,15.14,0.77l5.68,1.41c2.3,0.43,4.16,1.96,5.16,3.75c1,1.79,1.25,3.81,1.24,5.79
		c-0.02,3.72-0.96,7.48-3.17,10.71c-2.21,3.22-5.77,5.87-10.02,6.94c-5.39,1.36-11.15,0.13-16.7-0.63
		c-11.98-1.63-24.58-1.05-35.78-4.96c-2.96-1.03-5.95-2.53-7.28-4.97C211.24,137.61,212.12,134.42,214.15,132.1z"/>
	
		<ellipse transform="matrix(0.3882 -0.9216 0.9216 0.3882 41.8316 337.3978)" class="st0" cx="275.03" cy="137.19" rx="11.29" ry="6.68"/>
	<path class="st5" d="M312.97,86.6c1.86,15.91-81.75,76.3-132.53,71.92c-29.5-2.55,23.7-63.52,23.7-63.52
		c12.17-13.27,9.58-20.45,60.99-23C302.02,70.17,311.14,70.95,312.97,86.6z"/>
	<path class="st4" d="M204.15,95c8.9-9.71,9.91-16.16,29.91-19.92c-6.21,3.69-8.67,8.54-14.34,14.72c0,0-53.21,60.98-23.7,63.52
		c9.66,0.83,20.5-0.68,31.72-3.78c-16.61,6.42-33.21,10.19-47.29,8.97C150.94,155.97,204.15,95,204.15,95z"/>
</g>
</svg>
