<?xml version="1.0" encoding="utf-8"?>
<!-- Generator: Adobe Illustrator 25.4.1, SVG Export Plug-In . SVG Version: 6.00 Build 0)  -->
<svg version="1.1" id="Layer_1" xmlns="http://www.w3.org/2000/svg" xmlns:xlink="http://www.w3.org/1999/xlink" x="0px" y="0px"
	 viewBox="0 0 185.87 44.94" style="enable-background:new 0 0 185.87 44.94;" xml:space="preserve">
<style type="text/css">
	.st0{fill:#4C7BF2;}
	.st1{enable-background:new    ;}
	.st2{fill:#FFFFFF;}
	.st3{fill:#348989;}
	.st4{fill:#49BCC3;}
	.st5{fill:#F75252;}
	.st6{fill:#49BCC4;}
	.st7{fill:#E5EA39;}
	.st8{fill:#F4F3DC;}
	.st9{fill:#B5BF2C;}
	.st10{opacity:0.55;fill:#FFFFFF;}
</style>
<g>
	<rect x="3.14" y="3.7" class="st0" width="179.6" height="37.53"/>
</g>
<g class="st1">
	<path class="st2" d="M27.79,29.16c-1.98,0-3.45-0.52-4.39-1.55c-0.95-1.03-1.42-2.64-1.42-4.82c0-4.2,1.97-6.3,5.91-6.3
		c0.38,0,0.77,0.03,1.18,0.08c0.41,0.05,0.79,0.13,1.16,0.23s0.67,0.22,0.9,0.36c0.31,0.18,0.46,0.37,0.46,0.57
		c0,0.17-0.06,0.38-0.19,0.65c-0.13,0.27-0.28,0.5-0.46,0.71s-0.34,0.31-0.5,0.31c-0.07,0-0.2-0.05-0.4-0.14s-0.47-0.19-0.82-0.28
		c-0.35-0.09-0.81-0.14-1.38-0.14c-1.04,0-1.81,0.33-2.31,0.99s-0.75,1.66-0.75,2.99c0,1.32,0.25,2.32,0.75,3.01
		c0.5,0.68,1.26,1.03,2.27,1.03c0.57,0,1.05-0.06,1.44-0.18c0.4-0.12,0.72-0.24,0.96-0.35c0.25-0.12,0.41-0.18,0.5-0.18
		c0.19,0,0.36,0.11,0.52,0.32c0.16,0.21,0.29,0.44,0.38,0.69c0.09,0.25,0.14,0.42,0.14,0.53c0,0.17-0.06,0.32-0.17,0.45
		c-0.11,0.13-0.26,0.26-0.45,0.36c-0.28,0.15-0.62,0.28-1.02,0.38c-0.4,0.1-0.8,0.17-1.2,0.22C28.49,29.14,28.12,29.16,27.79,29.16z
		"/>
	<path class="st2" d="M38.24,29.16c-1.82,0-3.22-0.54-4.2-1.64s-1.48-2.66-1.48-4.7c0-2.04,0.49-3.6,1.48-4.7
		c0.98-1.09,2.38-1.64,4.2-1.64c1.83,0,3.23,0.55,4.2,1.64c0.97,1.09,1.46,2.66,1.46,4.7c0,2.04-0.49,3.6-1.46,4.7
		S40.07,29.16,38.24,29.16z M38.24,26.84c0.94,0,1.66-0.35,2.14-1.04s0.73-1.68,0.73-2.98s-0.24-2.29-0.73-2.97
		c-0.48-0.68-1.2-1.03-2.14-1.03c-0.94,0-1.66,0.34-2.15,1.03c-0.49,0.68-0.73,1.67-0.73,2.97s0.24,2.29,0.73,2.98
		S37.29,26.84,38.24,26.84z"/>
	<path class="st2" d="M51.89,26.06c-0.31,0-0.54-0.11-0.71-0.34l-2.18-3.89c-0.07-0.12-0.14-0.23-0.2-0.35
		c-0.06-0.11-0.13-0.23-0.19-0.34l-0.07,0.02c0,0.14,0,0.28,0,0.42c0,0.14,0,0.29,0,0.44v6.46c0,0.38-0.35,0.57-1.06,0.57h-0.51
		c-0.71,0-1.06-0.19-1.06-0.57V17.17c0-0.38,0.35-0.57,1.06-0.57h0.94c0.26,0,0.49,0.04,0.68,0.11c0.19,0.07,0.34,0.19,0.43,0.37
		l2.94,5.23c0.02,0.05,0.05,0.09,0.09,0.14c0.04,0.05,0.06,0.1,0.09,0.16c0.02-0.06,0.05-0.11,0.08-0.16
		c0.03-0.05,0.06-0.09,0.08-0.14l2.99-5.23c0.09-0.18,0.24-0.3,0.43-0.37c0.19-0.07,0.42-0.11,0.68-0.11h0.92
		c0.71,0,1.06,0.19,1.06,0.57v11.32c0,0.38-0.35,0.57-1.06,0.57h-0.51c-0.71,0-1.06-0.19-1.06-0.57v-6.46c0-0.15,0-0.3,0-0.44
		c0-0.14,0-0.28,0-0.42l-0.07-0.02c-0.06,0.12-0.12,0.23-0.19,0.34c-0.06,0.11-0.13,0.23-0.2,0.35l-2.17,3.89
		c-0.17,0.22-0.4,0.34-0.71,0.34H51.89z"/>
	<path class="st2" d="M61.88,29.05c-0.71,0-1.06-0.19-1.06-0.57V17.35c0-0.47,0.24-0.71,0.71-0.71h3.71c0.39,0,0.83,0.04,1.31,0.13
		c0.48,0.09,0.95,0.26,1.39,0.52c0.44,0.26,0.8,0.65,1.09,1.17c0.28,0.52,0.42,1.2,0.42,2.05c0,0.68-0.11,1.26-0.32,1.72
		c-0.21,0.46-0.49,0.83-0.82,1.12s-0.69,0.51-1.06,0.65c-0.37,0.15-0.72,0.25-1.05,0.3s-0.59,0.08-0.78,0.08h-1.87v4.1
		c0,0.38-0.35,0.57-1.06,0.57H61.88z M63.54,22.05h1.57c0.17,0,0.34-0.02,0.52-0.06c0.18-0.04,0.35-0.12,0.5-0.23
		c0.15-0.11,0.28-0.27,0.37-0.47c0.09-0.2,0.14-0.46,0.14-0.78c0-0.42-0.08-0.75-0.25-0.97c-0.17-0.22-0.37-0.38-0.6-0.46
		s-0.47-0.12-0.69-0.12h-1.57V22.05z"/>
	<path class="st2" d="M71.96,29.05c-0.71,0-1.06-0.19-1.06-0.57V17.35c0-0.47,0.24-0.71,0.71-0.71h3.45c1.53,0,2.65,0.29,3.35,0.87
		c0.7,0.58,1.05,1.4,1.05,2.46c0,0.68-0.19,1.26-0.57,1.74s-0.88,0.83-1.49,1.07v0.07c0.22,0.08,0.45,0.28,0.69,0.59
		s0.43,0.66,0.58,1.03l1.56,3.89c0.06,0.15,0.09,0.27,0.09,0.34c0,0.24-0.35,0.35-1.06,0.35h-0.73c-0.26,0-0.48-0.03-0.66-0.08
		c-0.18-0.05-0.3-0.15-0.36-0.29l-1.4-3.45c-0.18-0.35-0.37-0.62-0.59-0.8c-0.22-0.18-0.62-0.27-1.19-0.27h-0.69v4.32
		c0,0.38-0.35,0.57-1.06,0.57H71.96z M73.62,21.82h1.68c0.25,0,0.47-0.07,0.68-0.2c0.21-0.14,0.37-0.32,0.5-0.55
		c0.12-0.23,0.19-0.49,0.19-0.77c0-0.41-0.13-0.74-0.4-0.98s-0.63-0.36-1.09-0.36h-1.56V21.82z"/>
	<path class="st2" d="M81.55,29.05c-0.72,0-1.08-0.13-1.08-0.39c0-0.05,0.01-0.1,0.03-0.15c0.02-0.05,0.03-0.11,0.04-0.17
		l3.89-11.37c0.09-0.25,0.43-0.37,1.01-0.37h0.92c0.59,0,0.93,0.12,1.01,0.37l3.89,11.37c0.04,0.12,0.05,0.22,0.05,0.32
		c0,0.26-0.29,0.39-0.88,0.39h-0.78c-0.26,0-0.48-0.03-0.65-0.08c-0.18-0.05-0.29-0.15-0.34-0.29l-0.71-2.16h-4.17l-0.71,2.16
		c-0.05,0.13-0.14,0.22-0.28,0.28c-0.14,0.06-0.32,0.09-0.53,0.09H81.55z M84.54,24.19h2.65l-1.01-3.15
		c-0.06-0.19-0.11-0.38-0.15-0.57c-0.04-0.19-0.08-0.38-0.11-0.57h-0.07c-0.04,0.19-0.07,0.38-0.11,0.57
		c-0.04,0.19-0.09,0.38-0.16,0.57L84.54,24.19z"/>
	<path class="st2" d="M93.59,29.05c-0.71,0-1.06-0.19-1.06-0.57V17.35c0-0.47,0.24-0.71,0.71-0.71h3.45c1.53,0,2.65,0.29,3.35,0.87
		c0.7,0.58,1.05,1.4,1.05,2.46c0,0.68-0.19,1.26-0.57,1.74c-0.38,0.48-0.88,0.83-1.49,1.07v0.07c0.22,0.08,0.45,0.28,0.69,0.59
		c0.24,0.31,0.43,0.66,0.58,1.03l1.56,3.89c0.06,0.15,0.09,0.27,0.09,0.34c0,0.24-0.35,0.35-1.06,0.35h-0.72
		c-0.26,0-0.48-0.03-0.66-0.08c-0.18-0.05-0.3-0.15-0.36-0.29l-1.4-3.45c-0.18-0.35-0.38-0.62-0.59-0.8s-0.62-0.27-1.19-0.27h-0.69
		v4.32c0,0.38-0.35,0.57-1.06,0.57H93.59z M95.25,21.82h1.68c0.25,0,0.47-0.07,0.68-0.2c0.21-0.14,0.37-0.32,0.5-0.55
		s0.19-0.49,0.19-0.77c0-0.41-0.13-0.74-0.4-0.98c-0.27-0.24-0.63-0.36-1.09-0.36h-1.56V21.82z"/>
	<path class="st2" d="M107.42,29.05c-0.72,0-1.08-0.13-1.08-0.39c0-0.05,0.01-0.1,0.03-0.15c0.02-0.05,0.03-0.11,0.04-0.17
		l3.89-11.37c0.09-0.25,0.43-0.37,1.01-0.37h0.92c0.59,0,0.93,0.12,1.01,0.37l3.89,11.37c0.04,0.12,0.05,0.22,0.05,0.32
		c0,0.26-0.29,0.39-0.88,0.39h-0.78c-0.26,0-0.48-0.03-0.65-0.08c-0.18-0.05-0.29-0.15-0.34-0.29l-0.71-2.16h-4.17l-0.71,2.16
		c-0.05,0.13-0.14,0.22-0.28,0.28c-0.14,0.06-0.32,0.09-0.53,0.09H107.42z M110.41,24.19h2.65l-1.01-3.15
		c-0.06-0.19-0.11-0.38-0.15-0.57c-0.04-0.19-0.08-0.38-0.11-0.57h-0.07c-0.04,0.19-0.07,0.38-0.11,0.57
		c-0.04,0.19-0.09,0.38-0.16,0.57L110.41,24.19z"/>
	<path class="st2" d="M119.6,29.05c-0.71,0-1.06-0.19-1.06-0.57V17.17c0-0.38,0.35-0.57,1.06-0.57h0.62c0.71,0,1.06,0.19,1.06,0.57
		v4.37h4.77v-4.37c0-0.38,0.35-0.57,1.06-0.57h0.62c0.71,0,1.06,0.19,1.06,0.57v11.32c0,0.38-0.35,0.57-1.06,0.57h-0.62
		c-0.71,0-1.06-0.19-1.06-0.57v-4.62h-4.77v4.62c0,0.38-0.35,0.57-1.06,0.57H119.6z"/>
	<path class="st2" d="M136.62,29.16c-1.82,0-3.22-0.54-4.2-1.64s-1.48-2.66-1.48-4.7c0-2.04,0.49-3.6,1.48-4.7
		c0.98-1.09,2.38-1.64,4.2-1.64c1.83,0,3.23,0.55,4.2,1.64c0.97,1.09,1.46,2.66,1.46,4.7c0,2.04-0.49,3.6-1.46,4.7
		S138.44,29.16,136.62,29.16z M136.62,26.84c0.94,0,1.66-0.35,2.14-1.04s0.72-1.68,0.72-2.98s-0.24-2.29-0.72-2.97
		c-0.48-0.68-1.2-1.03-2.14-1.03c-0.94,0-1.66,0.34-2.15,1.03c-0.49,0.68-0.73,1.67-0.73,2.97s0.24,2.29,0.73,2.98
		S135.67,26.84,136.62,26.84z"/>
	<path class="st2" d="M145.35,29.05c-0.71,0-1.06-0.19-1.06-0.57V17.35c0-0.47,0.24-0.71,0.71-0.71h3.45c1.53,0,2.65,0.29,3.35,0.87
		c0.7,0.58,1.05,1.4,1.05,2.46c0,0.68-0.19,1.26-0.58,1.74c-0.38,0.48-0.88,0.83-1.49,1.07v0.07c0.22,0.08,0.45,0.28,0.69,0.59
		c0.24,0.31,0.43,0.66,0.58,1.03l1.56,3.89c0.06,0.15,0.09,0.27,0.09,0.34c0,0.24-0.35,0.35-1.06,0.35h-0.73
		c-0.26,0-0.48-0.03-0.66-0.08c-0.18-0.05-0.3-0.15-0.36-0.29l-1.4-3.45c-0.18-0.35-0.37-0.62-0.59-0.8
		c-0.22-0.18-0.62-0.27-1.19-0.27h-0.69v4.32c0,0.38-0.35,0.57-1.06,0.57H145.35z M147.01,21.82h1.68c0.25,0,0.47-0.07,0.68-0.2
		c0.21-0.14,0.37-0.32,0.5-0.55c0.12-0.23,0.19-0.49,0.19-0.77c0-0.41-0.13-0.74-0.4-0.98c-0.26-0.24-0.63-0.36-1.09-0.36h-1.56
		V21.82z"/>
	<path class="st2" d="M154.94,29.05c-0.72,0-1.08-0.13-1.08-0.39c0-0.05,0.01-0.1,0.03-0.15c0.02-0.05,0.03-0.11,0.04-0.17
		l3.89-11.37c0.09-0.25,0.43-0.37,1.01-0.37h0.92c0.59,0,0.93,0.12,1.01,0.37l3.89,11.37c0.04,0.12,0.05,0.22,0.05,0.32
		c0,0.26-0.29,0.39-0.88,0.39h-0.78c-0.26,0-0.48-0.03-0.65-0.08c-0.18-0.05-0.29-0.15-0.34-0.29l-0.71-2.16h-4.17l-0.71,2.16
		c-0.05,0.13-0.14,0.22-0.28,0.28c-0.14,0.06-0.32,0.09-0.53,0.09H154.94z M157.92,24.19h2.65l-1.01-3.15
		c-0.06-0.19-0.11-0.38-0.15-0.57c-0.04-0.19-0.08-0.38-0.11-0.57h-0.07c-0.04,0.19-0.07,0.38-0.11,0.57
		c-0.04,0.19-0.09,0.38-0.16,0.57L157.92,24.19z"/>
</g>
<g>
	<g>
		<path class="st3" d="M-1801.14-1620.77l-4.74-1.53c-1.44-1.68-1.19-3.32-0.93-5.07c0.12-0.81,0.3-1.96,0.54-3.39
			c0.41-2.48,1.09-6.4,1.97-10.91c2.21-11.32,4.36-19.55,6.37-24.46c5.27-12.86,14.86-22.3,27.75-27.31
			c9.65-3.75,17.78-3.7,18.12-3.69l-0.12,9.55c-0.01,0-0.03,0-0.05,0c-1.6,0-26.76,0.41-36.87,25.08
			c-4.13,10.09-8.23,35.92-8.41,37.53c0.24-2.09-1.19-4.65-3.92-5.13l-0.82,4.67l4.65,1.12L-1801.14-1620.77z"/>
	</g>
	<g>
		<path class="st3" d="M-1303.27-1649.57l4.19-2.7c0.96-1.99,0.3-3.52-0.4-5.13c-0.32-0.75-0.8-1.82-1.39-3.14
			c-1.04-2.3-2.69-5.9-4.7-10.04c-5.04-10.38-9.22-17.78-12.42-22.02c-8.38-11.08-20.07-17.75-33.81-19.3
			c-10.29-1.16-18.13,0.97-18.46,1.07l2.56,9.2c0.01,0,0.03-0.01,0.04-0.01c1.55-0.41,25.98-6.45,42.06,14.8
			c6.58,8.69,17.15,32.62,17.74,34.12c-0.77-1.96-0.04-4.8,2.48-5.97l1.99,4.3l-4.21,2.27L-1303.27-1649.57z"/>
	</g>
	<g>
		<path class="st4" d="M-1782.14-1625.44c0,11.1-9,20.11-20.11,20.11c-11.1,0-20.11-9-20.11-20.11c0-11.11,9-20.11,20.11-20.11
			C-1791.14-1645.55-1782.14-1636.55-1782.14-1625.44z"/>
		<path class="st5" d="M-1792.48-1625.44c0,5.4-4.38,9.77-9.77,9.77c-5.4,0-9.77-4.38-9.77-9.77c0-5.4,4.38-9.77,9.77-9.77
			C-1796.85-1635.22-1792.48-1630.84-1792.48-1625.44z"/>
	</g>
	<g>
		<circle class="st4" cx="-1304.42" cy="-1651.33" r="20.11"/>
		<circle class="st5" cx="-1304.42" cy="-1651.33" r="9.77"/>
	</g>
	<path class="st6" d="M-1886.21-1636.01c2.82,8.99,12.21,11.55,17.38,11.98c6.59,0.54,14.82-5.05,14.95-16.42
		c0.15-12.8-19.13-95.61-19.13-95.61S-1890.53-1649.8-1886.21-1636.01z"/>
	<path class="st6" d="M-1886.14-1843.05c2.92-8.96,12.34-11.41,17.52-11.77c6.6-0.46,14.76,5.23,14.76,16.6
		c0,12.8-20.24,95.38-20.24,95.38S-1890.62-1829.3-1886.14-1843.05z"/>
	<path class="st5" d="M-1842.64-1752.92c-8.3,1.12-13.74,1.36-22.34,2.46c-2.1,0.27-4.58,2.54-5.97,4.15
		c-2.56,2.97-3.22,7.44-1.61,11.02c1.41,3.15,4.35,5.42,7.53,6.76c3.18,1.34,7.18,1.51,10.6,2.02c5.45,0.82,10.35,1.99,15.8,2.81
		L-1842.64-1752.92z"/>
	<path class="st7" d="M-1864.98-1750.47c-7.03,0-12.72,4.88-12.72,10.89c0,6.02,5.69,10.89,12.72,10.89V-1750.47z"/>
	<g>
		<path class="st3" d="M-1219.15-1696.57c-0.43,0-0.87-0.11-1.27-0.35l-72.82-42.74c-0.79-0.46-1.27-1.33-1.24-2.25
			c0.03-0.92,0.56-1.75,1.38-2.16c28.86-14.62,72.71-37.04,75.53-39.06c1.05-0.86,2.59-0.73,3.49,0.3c0.91,1.05,0.8,2.63-0.25,3.54
			c-2.26,1.96-51.62,27.08-72.4,37.62l68.85,40.42c1.2,0.7,1.6,2.24,0.9,3.44C-1217.45-1697.01-1218.29-1696.57-1219.15-1696.57z
			 M-1217.59-1783.11c-0.01,0.01-0.03,0.02-0.04,0.03C-1217.62-1783.09-1217.6-1783.1-1217.59-1783.11z"/>
	</g>
	<path class="st7" d="M-1218.06-1676.65l0.07-141.69c0,0,32.5-22.81,90.61-22.81c39.65,0,84.52,26.9,141.05,26.9
		c43.86,0,82.62-33.63,137.88-26.72c66.56,8.32,73.43,30.62,138.4,26.72c64.98-3.9,48.6-18.4,111.2-21.53
		c61.86-3.1,147.65,44.82,147.65,44.82s-77.13,27.82-73.96,30.82c3.17,3,53.88,67.38,53.88,67.38s-66.56-28.96-114.1-17.71
		c-47.54,11.25-77.13,30.47-128.9,26.14c-51.77-4.33-82.67-36-139.46-36c-49.33,0-76.91,40.32-134.18,39.18
		c-57.27-1.14-71.84-26.22-131.12-24.1C-1144.79-1704.33-1218.06-1676.65-1218.06-1676.65z"/>
	<g>
		<path class="st8" d="M-587.49-1733.18c-47.54,11.25-77.13,30.47-128.9,26.14c-51.77-4.33-82.67-36-139.46-36
			c-49.33,0-76.91,40.32-134.18,39.18c-57.27-1.14-71.84-26.22-131.12-24.1c-23.15,0.83-84.71,23.28-96.9,27.8l-0.01,23.51
			c0,0,73.27-27.68,99.03-28.6c59.28-2.12,73.85,22.96,131.12,24.1c57.27,1.14,84.85-39.18,134.18-39.18
			c56.79,0,87.69,31.67,139.46,36c51.77,4.33,81.35-14.9,128.9-26.14c47.54-11.25,114.1,17.71,114.1,17.71s-11.82-15.01-24.41-30.88
			C-519.29-1731.21-557.24-1740.34-587.49-1733.18z"/>
	</g>
	<g>
		<path class="st8" d="M-1217.99-1796.16c0,0,32.5-22.81,90.61-22.81c39.65,0,84.52,26.9,141.05,26.9
			c43.86,0,82.62-33.62,137.88-26.72c66.56,8.32,73.43,30.62,138.4,26.72c64.98-3.9,48.6-18.4,111.2-21.53
			c40.8-2.04,92.02,18.11,122.16,32.06c13.96-5.28,25.49-9.44,25.49-9.44s-85.79-47.91-147.65-44.82
			c-62.6,3.13-46.22,17.62-111.2,21.53c-64.98,3.9-71.84-18.4-138.4-26.72c-55.25-6.91-94.02,26.72-137.88,26.72
			c-56.52,0-101.4-26.9-141.05-26.9c-58.11,0-90.61,22.81-90.61,22.81l-0.07,141.69c0,0,0.01,0,0.01,0L-1217.99-1796.16z"/>
	</g>
	<path class="st7" d="M-1862.26-1740.9c-4.45-46.87,98.24-53.09,98.24-53.09s48.35-47.54,83.22-57.84
		c34.87-10.3,331.22,60.22,331.22,60.22l48.29-92.53l30.48,7.59l-21.72,174.69c0,0-170.25,30.02-304.28,26.74
		C-1758.46-1679.09-1856.47-1679.89-1862.26-1740.9z"/>
	<path class="st9" d="M-1288.42-1880.94l-18.9,152.03c0,0-170.26,30.02-304.28,26.73c-128.09-3.14-216.22-4.29-250.17-34.99
		c9.42,57.31,106.68,58.16,264.97,62.04c134.02,3.29,304.28-26.74,304.28-26.74l21.72-174.69L-1288.42-1880.94z"/>
	<path class="st4" d="M-1680.22-1851.84c-34.87,10.3-83.22,57.84-83.22,57.84s-0.2,0.01-0.58,0.04
		c5.55,6.34,13.75,11.33,24.04,15.29c17.77,6.84,37.09,8.52,55.96,9.14c10.33,0.34,20.74,0.37,30.92-1.42
		c20.73-3.66,40.53-15.74,50.5-34.28c6.33-11.76,8.01-26.11,4.71-38.93C-1638.21-1851.04-1670.14-1854.81-1680.22-1851.84z"/>
	<path class="st5" d="M-1693.18-1723.52c0.83,22.77,200.12,97.96,226.42,98.07c32.63,0.14,44.66-4.65,38.75-37.16
		c-7.43-40.88-64.97-79.44-95.68-92.97C-1546.31-1765.53-1694.35-1755.57-1693.18-1723.52z"/>
	<path class="st10" d="M-1662.93-1737.77c-3.67,1.66-6.68,5.49-6.04,9.47c0.62,3.84,4.25,6.4,7.69,8.21
		c4.74,2.49,9.75,4.42,14.74,6.35c35.99,13.9,71.98,27.8,107.96,41.7c2.88,1.11,7.69,0.86,7.29-2.2c-0.13-1.01-0.92-1.79-1.69-2.45
		c-5.32-4.52-12.08-6.88-18.56-9.46c-19.57-7.79-37.93-18.26-56.22-28.69c-9.98-5.7-19.96-11.39-29.94-17.09
		C-1646.08-1736.72-1653.05-1742.24-1662.93-1737.77z"/>
	<path class="st5" d="M-1826.98-1697.46c0.54-1.68,0.99-3.39,1.38-5.09c3.27-14.34,3.24-29.42-0.1-43.75
		c-2.42-10.41-8.79-20.16-16.65-26.91c-12.65,7.71-21.28,18.23-19.92,32.54C-1860.34-1720.39-1848.22-1706.76-1826.98-1697.46z"/>
	<path class="st10" d="M-1721.25-1791.21c5.89-1.92,10.49-6.58,14.12-11.61c3.63-5.02,6.54-10.56,10.47-15.34
		c5.63-6.84,13.3-11.98,21.78-14.57c3.84-1.17,8.84-3.11,8.47-7.11c-0.18-1.95-1.75-3.52-3.5-4.39c-5.11-2.54-11.23-0.41-16.4,1.99
		c-15.59,7.25-30.03,16.95-42.65,28.62c-4.73,4.37-12.89,9.53-9.25,16.76C-1735.19-1790.87-1727.18-1789.29-1721.25-1791.21z"/>
	<polygon class="st5" points="-1313.47,-1860.81 -1274.22,-1849.18 -1275.41,-1839.54 -1319.02,-1850.18 	"/>
	<polygon class="st5" points="-1322.69,-1843.15 -1276.16,-1833.52 -1278.1,-1817.91 -1331.67,-1825.95 	"/>
	<path class="st5" d="M-1409.81-1771.8l124.2,14.23l-1.69,13.6l3.66-29.47l-298.19-31.6l291.78,83.12l1.7-13.67
		C-1288.34-1735.59-1409.01-1771.8-1409.81-1771.8z"/>
	<path class="st10" d="M-1834.13-1747.03c3.15-1.82,5.77-4.42,8.62-6.69c13.13-10.43,30.53-13.19,46.92-16.76
		c3.03-0.66,6.57-1.84,7.36-4.84c0.72-2.77-1.6-5.6-4.32-6.48c-2.72-0.88-5.68-0.34-8.49,0.23c-10.91,2.21-21.75,4.7-32.53,7.47
		c-10.02,2.58-22.31,5.54-29.79,13.26C-1855.3-1751.62-1844.72-1740.91-1834.13-1747.03z"/>
</g>
</svg>
