<?xml version="1.0" encoding="utf-8"?>
<!-- Generator: Adobe Illustrator 25.4.1, SVG Export Plug-In . SVG Version: 6.00 Build 0)  -->
<svg version="1.1" id="Layer_1" xmlns="http://www.w3.org/2000/svg" xmlns:xlink="http://www.w3.org/1999/xlink" x="0px" y="0px"
	 viewBox="0 0 185.87 44.94" style="enable-background:new 0 0 185.87 44.94;" xml:space="preserve">
<style type="text/css">
	.st0{fill:#FFFFFF;}
	.st1{fill:none;}
	.st2{enable-background:new    ;}
	.st3{fill:#4C7BF2;}
</style>
<g>
	<rect x="3.14" y="3.7" class="st0" width="179.6" height="37.53"/>
</g>
<rect x="12.68" y="17.25" class="st1" width="160.5" height="15.14"/>
<g class="st2">
	<path class="st3" d="M27.79,29.16c-1.98,0-3.45-0.52-4.39-1.55c-0.95-1.03-1.42-2.64-1.42-4.82c0-4.2,1.97-6.3,5.91-6.3
		c0.38,0,0.77,0.03,1.18,0.08s0.79,0.13,1.16,0.23s0.67,0.22,0.9,0.36c0.31,0.18,0.46,0.37,0.46,0.57c0,0.17-0.06,0.38-0.19,0.65
		c-0.13,0.27-0.28,0.5-0.46,0.71s-0.34,0.31-0.5,0.31c-0.07,0-0.2-0.05-0.4-0.14s-0.47-0.19-0.82-0.28s-0.81-0.14-1.38-0.14
		c-1.04,0-1.81,0.33-2.31,0.99s-0.75,1.66-0.75,2.99c0,1.32,0.25,2.32,0.75,3.01c0.5,0.68,1.26,1.03,2.27,1.03
		c0.57,0,1.05-0.06,1.44-0.18c0.4-0.12,0.72-0.24,0.96-0.35c0.25-0.12,0.41-0.18,0.5-0.18c0.19,0,0.36,0.11,0.52,0.32
		s0.29,0.44,0.38,0.69c0.09,0.25,0.14,0.42,0.14,0.53c0,0.17-0.06,0.32-0.17,0.45c-0.11,0.13-0.26,0.26-0.45,0.36
		c-0.28,0.15-0.62,0.28-1.02,0.38c-0.4,0.1-0.8,0.17-1.2,0.22C28.49,29.14,28.12,29.16,27.79,29.16z"/>
	<path class="st3" d="M38.24,29.16c-1.82,0-3.22-0.54-4.2-1.64s-1.48-2.66-1.48-4.7s0.49-3.6,1.48-4.7c0.98-1.09,2.38-1.64,4.2-1.64
		c1.83,0,3.23,0.55,4.2,1.64s1.46,2.66,1.46,4.7s-0.49,3.6-1.46,4.7S40.07,29.16,38.24,29.16z M38.24,26.84
		c0.94,0,1.66-0.35,2.14-1.04s0.73-1.68,0.73-2.98s-0.24-2.29-0.73-2.97c-0.48-0.68-1.2-1.03-2.14-1.03s-1.66,0.34-2.15,1.03
		c-0.49,0.68-0.73,1.67-0.73,2.97s0.24,2.29,0.73,2.98S37.29,26.84,38.24,26.84z"/>
	<path class="st3" d="M51.89,26.06c-0.31,0-0.54-0.11-0.71-0.34L49,21.83c-0.07-0.12-0.14-0.23-0.2-0.35
		c-0.06-0.11-0.13-0.23-0.19-0.34l-0.07,0.02c0,0.14,0,0.28,0,0.42s0,0.29,0,0.44v6.46c0,0.38-0.35,0.57-1.06,0.57h-0.51
		c-0.71,0-1.06-0.19-1.06-0.57V17.17c0-0.38,0.35-0.57,1.06-0.57h0.94c0.26,0,0.49,0.04,0.68,0.11s0.34,0.19,0.43,0.37l2.94,5.23
		c0.02,0.05,0.05,0.09,0.09,0.14s0.06,0.1,0.09,0.16c0.02-0.06,0.05-0.11,0.08-0.16c0.03-0.05,0.06-0.09,0.08-0.14l2.99-5.23
		c0.09-0.18,0.24-0.3,0.43-0.37c0.19-0.07,0.42-0.11,0.68-0.11h0.92c0.71,0,1.06,0.19,1.06,0.57v11.32c0,0.38-0.35,0.57-1.06,0.57
		h-0.51c-0.71,0-1.06-0.19-1.06-0.57v-6.46c0-0.15,0-0.3,0-0.44c0-0.14,0-0.28,0-0.42l-0.07-0.02c-0.06,0.12-0.12,0.23-0.19,0.34
		c-0.06,0.11-0.13,0.23-0.2,0.35l-2.17,3.89c-0.17,0.22-0.4,0.34-0.71,0.34L51.89,26.06L51.89,26.06z"/>
	<path class="st3" d="M61.88,29.05c-0.71,0-1.06-0.19-1.06-0.57V17.35c0-0.47,0.24-0.71,0.71-0.71h3.71c0.39,0,0.83,0.04,1.31,0.13
		c0.48,0.09,0.95,0.26,1.39,0.52s0.8,0.65,1.09,1.17c0.28,0.52,0.42,1.2,0.42,2.05c0,0.68-0.11,1.26-0.32,1.72s-0.49,0.83-0.82,1.12
		s-0.69,0.51-1.06,0.65c-0.37,0.15-0.72,0.25-1.05,0.3s-0.59,0.08-0.78,0.08h-1.87v4.1c0,0.38-0.35,0.57-1.06,0.57H61.88z
		 M63.54,22.05h1.57c0.17,0,0.34-0.02,0.52-0.06c0.18-0.04,0.35-0.12,0.5-0.23c0.15-0.11,0.28-0.27,0.37-0.47
		c0.09-0.2,0.14-0.46,0.14-0.78c0-0.42-0.08-0.75-0.25-0.97s-0.37-0.38-0.6-0.46s-0.47-0.12-0.69-0.12h-1.57v3.09H63.54z"/>
	<path class="st3" d="M71.96,29.05c-0.71,0-1.06-0.19-1.06-0.57V17.35c0-0.47,0.24-0.71,0.71-0.71h3.45c1.53,0,2.65,0.29,3.35,0.87
		s1.05,1.4,1.05,2.46c0,0.68-0.19,1.26-0.57,1.74s-0.88,0.83-1.49,1.07v0.07c0.22,0.08,0.45,0.28,0.69,0.59s0.43,0.66,0.58,1.03
		l1.56,3.89c0.06,0.15,0.09,0.27,0.09,0.34c0,0.24-0.35,0.35-1.06,0.35h-0.73c-0.26,0-0.48-0.03-0.66-0.08s-0.3-0.15-0.36-0.29
		l-1.4-3.45c-0.18-0.35-0.37-0.62-0.59-0.8c-0.22-0.18-0.62-0.27-1.19-0.27h-0.69v4.32c0,0.38-0.35,0.57-1.06,0.57H71.96z
		 M73.62,21.82h1.68c0.25,0,0.47-0.07,0.68-0.2c0.21-0.14,0.37-0.32,0.5-0.55c0.12-0.23,0.19-0.49,0.19-0.77
		c0-0.41-0.13-0.74-0.4-0.98s-0.63-0.36-1.09-0.36h-1.56C73.62,18.96,73.62,21.82,73.62,21.82z"/>
	<path class="st3" d="M81.55,29.05c-0.72,0-1.08-0.13-1.08-0.39c0-0.05,0.01-0.1,0.03-0.15s0.03-0.11,0.04-0.17l3.89-11.37
		c0.09-0.25,0.43-0.37,1.01-0.37h0.92c0.59,0,0.93,0.12,1.01,0.37l3.89,11.37c0.04,0.12,0.05,0.22,0.05,0.32
		c0,0.26-0.29,0.39-0.88,0.39h-0.78c-0.26,0-0.48-0.03-0.65-0.08c-0.18-0.05-0.29-0.15-0.34-0.29l-0.71-2.16h-4.17l-0.71,2.16
		c-0.05,0.13-0.14,0.22-0.28,0.28c-0.14,0.06-0.32,0.09-0.53,0.09H81.55z M84.54,24.19h2.65l-1.01-3.15
		c-0.06-0.19-0.11-0.38-0.15-0.57s-0.08-0.38-0.11-0.57h-0.07c-0.04,0.19-0.07,0.38-0.11,0.57s-0.09,0.38-0.16,0.57L84.54,24.19z"/>
	<path class="st3" d="M93.59,29.05c-0.71,0-1.06-0.19-1.06-0.57V17.35c0-0.47,0.24-0.71,0.71-0.71h3.45c1.53,0,2.65,0.29,3.35,0.87
		s1.05,1.4,1.05,2.46c0,0.68-0.19,1.26-0.57,1.74s-0.88,0.83-1.49,1.07v0.07c0.22,0.08,0.45,0.28,0.69,0.59
		c0.24,0.31,0.43,0.66,0.58,1.03l1.56,3.89c0.06,0.15,0.09,0.27,0.09,0.34c0,0.24-0.35,0.35-1.06,0.35h-0.72
		c-0.26,0-0.48-0.03-0.66-0.08s-0.3-0.15-0.36-0.29l-1.4-3.45c-0.18-0.35-0.38-0.62-0.59-0.8s-0.62-0.27-1.19-0.27h-0.69v4.32
		c0,0.38-0.35,0.57-1.06,0.57H93.59z M95.25,21.82h1.68c0.25,0,0.47-0.07,0.68-0.2c0.21-0.14,0.37-0.32,0.5-0.55
		s0.19-0.49,0.19-0.77c0-0.41-0.13-0.74-0.4-0.98c-0.27-0.24-0.63-0.36-1.09-0.36h-1.56C95.25,18.96,95.25,21.82,95.25,21.82z"/>
	<path class="st3" d="M107.42,29.05c-0.72,0-1.08-0.13-1.08-0.39c0-0.05,0.01-0.1,0.03-0.15s0.03-0.11,0.04-0.17l3.89-11.37
		c0.09-0.25,0.43-0.37,1.01-0.37h0.92c0.59,0,0.93,0.12,1.01,0.37l3.89,11.37c0.04,0.12,0.05,0.22,0.05,0.32
		c0,0.26-0.29,0.39-0.88,0.39h-0.78c-0.26,0-0.48-0.03-0.65-0.08c-0.18-0.05-0.29-0.15-0.34-0.29l-0.71-2.16h-4.17l-0.71,2.16
		c-0.05,0.13-0.14,0.22-0.28,0.28c-0.14,0.06-0.32,0.09-0.53,0.09H107.42z M110.41,24.19h2.65l-1.01-3.15
		c-0.06-0.19-0.11-0.38-0.15-0.57s-0.08-0.38-0.11-0.57h-0.07c-0.04,0.19-0.07,0.38-0.11,0.57s-0.09,0.38-0.16,0.57L110.41,24.19z"
		/>
	<path class="st3" d="M119.6,29.05c-0.71,0-1.06-0.19-1.06-0.57V17.17c0-0.38,0.35-0.57,1.06-0.57h0.62c0.71,0,1.06,0.19,1.06,0.57
		v4.37h4.77v-4.37c0-0.38,0.35-0.57,1.06-0.57h0.62c0.71,0,1.06,0.19,1.06,0.57v11.32c0,0.38-0.35,0.57-1.06,0.57h-0.62
		c-0.71,0-1.06-0.19-1.06-0.57v-4.62h-4.77v4.62c0,0.38-0.35,0.57-1.06,0.57h-0.62V29.05z"/>
	<path class="st3" d="M136.62,29.16c-1.82,0-3.22-0.54-4.2-1.64s-1.48-2.66-1.48-4.7s0.49-3.6,1.48-4.7
		c0.98-1.09,2.38-1.64,4.2-1.64c1.83,0,3.23,0.55,4.2,1.64s1.46,2.66,1.46,4.7s-0.49,3.6-1.46,4.7S138.44,29.16,136.62,29.16z
		 M136.62,26.84c0.94,0,1.66-0.35,2.14-1.04s0.72-1.68,0.72-2.98s-0.24-2.29-0.72-2.97c-0.48-0.68-1.2-1.03-2.14-1.03
		s-1.66,0.34-2.15,1.03c-0.49,0.68-0.73,1.67-0.73,2.97s0.24,2.29,0.73,2.98S135.67,26.84,136.62,26.84z"/>
	<path class="st3" d="M145.35,29.05c-0.71,0-1.06-0.19-1.06-0.57V17.35c0-0.47,0.24-0.71,0.71-0.71h3.45c1.53,0,2.65,0.29,3.35,0.87
		c0.7,0.58,1.05,1.4,1.05,2.46c0,0.68-0.19,1.26-0.58,1.74c-0.38,0.48-0.88,0.83-1.49,1.07v0.07c0.22,0.08,0.45,0.28,0.69,0.59
		s0.43,0.66,0.58,1.03l1.56,3.89c0.06,0.15,0.09,0.27,0.09,0.34c0,0.24-0.35,0.35-1.06,0.35h-0.73c-0.26,0-0.48-0.03-0.66-0.08
		c-0.18-0.05-0.3-0.15-0.36-0.29l-1.4-3.45c-0.18-0.35-0.37-0.62-0.59-0.8c-0.22-0.18-0.62-0.27-1.19-0.27h-0.69v4.32
		c0,0.38-0.35,0.57-1.06,0.57H145.35z M147.01,21.82h1.68c0.25,0,0.47-0.07,0.68-0.2c0.21-0.14,0.37-0.32,0.5-0.55
		c0.12-0.23,0.19-0.49,0.19-0.77c0-0.41-0.13-0.74-0.4-0.98c-0.26-0.24-0.63-0.36-1.09-0.36h-1.56V21.82z"/>
	<path class="st3" d="M154.94,29.05c-0.72,0-1.08-0.13-1.08-0.39c0-0.05,0.01-0.1,0.03-0.15s0.03-0.11,0.04-0.17l3.89-11.37
		c0.09-0.25,0.43-0.37,1.01-0.37h0.92c0.59,0,0.93,0.12,1.01,0.37l3.89,11.37c0.04,0.12,0.05,0.22,0.05,0.32
		c0,0.26-0.29,0.39-0.88,0.39h-0.78c-0.26,0-0.48-0.03-0.65-0.08c-0.18-0.05-0.29-0.15-0.34-0.29l-0.71-2.16h-4.17l-0.71,2.16
		c-0.05,0.13-0.14,0.22-0.28,0.28c-0.14,0.06-0.32,0.09-0.53,0.09H154.94z M157.92,24.19h2.65l-1.01-3.15
		c-0.06-0.19-0.11-0.38-0.15-0.57s-0.08-0.38-0.11-0.57h-0.07c-0.04,0.19-0.07,0.38-0.11,0.57s-0.09,0.38-0.16,0.57L157.92,24.19z"
		/>
</g>
</svg>
