<?xml version="1.0" encoding="utf-8"?>
<!-- Generator: Adobe Illustrator 25.4.1, SVG Export Plug-In . SVG Version: 6.00 Build 0)  -->
<svg version="1.1" id="Layer_1" xmlns="http://www.w3.org/2000/svg" xmlns:xlink="http://www.w3.org/1999/xlink" x="0px" y="0px"
	 viewBox="0 0 297.19 103.4" style="enable-background:new 0 0 297.19 103.4;" xml:space="preserve">
<style type="text/css">
	.st0{fill:#FFFFFF;}
</style>
<path class="st0" d="M224.01,53.64c-8.01-4.4-25.02-4.31-31.7,1.91c-0.14-6.49-4.23-12.43-9.56-16.13
	c-5.33-3.7-11.78-5.43-18.18-6.46c-4.79-0.77-10.31-0.98-13.83,2.37c-2.87-7.63-9.27-13.76-16.88-16.67
	c-7.61-2.92-16.3-2.68-23.9,0.24c-5.76,2.21-11.4,6.7-11.96,12.84c-8.1-3.27-17.86-2.99-25.08,1.91c-7.22,4.9-11.11,14.76-8,22.92
	c-6.62-0.37-13.14,4.57-14.57,11.05c-1.43,6.47,2.41,13.7,8.57,16.14l5.19,1.82c14.48,0.68,140.33,3.27,168.62-1.96
	C239.02,82.46,243.07,64.11,224.01,53.64z"/>
</svg>
