<?xml version="1.0" encoding="utf-8"?>
<!-- Generator: Adobe Illustrator 25.4.1, SVG Export Plug-In . SVG Version: 6.00 Build 0)  -->
<svg version="1.1" id="Layer_1" xmlns="http://www.w3.org/2000/svg" xmlns:xlink="http://www.w3.org/1999/xlink" x="0px" y="0px"
	 viewBox="0 0 297.19 103.4" style="enable-background:new 0 0 297.19 103.4;" xml:space="preserve">
<style type="text/css">
	.st0{fill:#FFFFFF;}
</style>
<path class="st0" d="M271.77,67.62c-9.02-4.21-20.56-2.27-27.71,4.68c0.9-5.22-2.43-10.49-6.92-13.29
	c-4.5-2.81-9.94-3.61-15.23-3.95c-7.46-0.48-16.77,1.09-19.04,8.2c-1.85-9.68-9.69-17.95-19.25-20.32s-20.35,1.28-26.51,8.97
	c0.43-8.84-3.55-17.55-9.69-23.92c-6.13-6.38-14.25-10.58-22.7-13.2c-12.91-4-27.23-4.4-39.72,0.74
	C72.5,20.66,62.2,31.81,59.84,45.12c-1.12,6.31-0.34,13.22,3.44,18.4c-5.35-3.8-12.77-4.45-18.7-1.66
	c-5.94,2.79-10.15,8.93-10.64,15.47l1.82,8.05c1.75,3.71,6.65,4.37,10.74,4.53c60.77,2.29,121.62,2.36,182.39,0.21
	c12.12-0.43,24.28-0.95,36.24-2.96c3.17-0.53,6.4-1.2,9.12-2.91c2.72-1.71,4.87-4.68,4.74-7.89
	C278.84,72.38,275.38,69.3,271.77,67.62z"/>
</svg>
