<?xml version="1.0" encoding="utf-8"?>
<!-- Generator: Adobe Illustrator 25.4.1, SVG Export Plug-In . SVG Version: 6.00 Build 0)  -->
<svg version="1.1" id="Layer_1" xmlns="http://www.w3.org/2000/svg" xmlns:xlink="http://www.w3.org/1999/xlink" x="0px" y="0px"
	 viewBox="0 0 297.19 103.4" style="enable-background:new 0 0 297.19 103.4;" xml:space="preserve">
<style type="text/css">
	.st0{fill:#FFFFFF;}
</style>
<path class="st0" d="M99.12,14.11c24.9-4.4,53.14,4.73,65.24,21.1c8.21-7.04,23-9.56,34.68-5.91c11.68,3.65,19.29,13.18,17.85,22.34
	c15.74-12.09,46.96-10.22,59.73,3.59c5.12,5.53,7.25,13.04,2.86,18.89c-6.1,8.13-21.04,9.65-33.79,10.12
	c-62,2.26-114.45,4.58-175.19,3.18c-16.39-0.38-57.16,0-57.07-18.29c0.08-17.12,26.2-22.38,40.78-15.18
	C56.94,35.65,73.45,18.65,99.12,14.11z"/>
</svg>
